<mxfile host="app.diagrams.net" modified="2023-07-19T15:17:32.468Z" agent="Mozilla/5.0 (X11; Linux x86_64; rv:109.0) Gecko/20100101 Firefox/115.0" etag="vShu_9GNcIDj6da5Bvpy" version="21.2.9" type="device">
  <diagram name="Page-1" id="VH0YglG3ciixTjNPvb-s">
    <mxGraphModel dx="972" dy="526" grid="1" gridSize="10" guides="1" tooltips="1" connect="1" arrows="1" fold="1" page="1" pageScale="1" pageWidth="850" pageHeight="1100" math="0" shadow="0">
      <root>
        <mxCell id="0" />
        <mxCell id="1" parent="0" />
        <mxCell id="54zL1PZyRiu6i7i1GvDw-1" value="CAPA DE APLICACIÓN" style="rounded=1;html=1;labelPosition=center;verticalLabelPosition=bottom;align=center;verticalAlign=top;fillColor=#e1d5e7;strokeColor=#9673a6;horizontal=1;fontStyle=1;fontSize=10;" vertex="1" parent="1">
          <mxGeometry x="110" y="237.5" width="145" height="115" as="geometry" />
        </mxCell>
        <mxCell id="54zL1PZyRiu6i7i1GvDw-2" value="CAPA DE DOMINIO" style="rounded=1;whiteSpace=wrap;html=1;labelPosition=center;verticalLabelPosition=bottom;align=center;verticalAlign=top;fontStyle=1;fontSize=10;fillColor=#d5e8d4;strokeColor=#82b366;" vertex="1" parent="1">
          <mxGeometry x="300" y="260" width="340" height="210" as="geometry" />
        </mxCell>
        <mxCell id="54zL1PZyRiu6i7i1GvDw-3" value="CONTROLADOR" style="rounded=1;whiteSpace=wrap;fillColor=#FEEDFF;strokeColor=#9673A6;align=center;verticalAlign=middle;html=1;labelBorderColor=none;labelBackgroundColor=none;fontSize=10;" vertex="1" parent="1">
          <mxGeometry x="130" y="262.5" width="105" height="30" as="geometry" />
        </mxCell>
        <mxCell id="54zL1PZyRiu6i7i1GvDw-4" value="LÓGICA DE NEGOCIO" style="ellipse;whiteSpace=wrap;html=1;aspect=fixed;fontSize=10;fillColor=#EAFFE9;strokeColor=#82b366;" vertex="1" parent="1">
          <mxGeometry x="430" y="320" width="80" height="80" as="geometry" />
        </mxCell>
        <mxCell id="54zL1PZyRiu6i7i1GvDw-5" value="PUNTO DE ENTRADA" style="rounded=1;whiteSpace=wrap;fillColor=#E1F5E0;strokeColor=#82b366;align=center;verticalAlign=middle;html=1;labelBorderColor=none;labelBackgroundColor=none;fontSize=10;" vertex="1" parent="1">
          <mxGeometry x="320" y="280" width="120" height="30" as="geometry" />
        </mxCell>
        <mxCell id="54zL1PZyRiu6i7i1GvDw-8" value="" style="endArrow=none;html=1;rounded=1;exitX=0.5;exitY=1;exitDx=0;exitDy=0;entryX=0;entryY=0.5;entryDx=0;entryDy=0;edgeStyle=orthogonalEdgeStyle;startArrow=classic;startFill=1;endFill=0;" edge="1" parent="1" source="54zL1PZyRiu6i7i1GvDw-5" target="54zL1PZyRiu6i7i1GvDw-4">
          <mxGeometry width="50" height="50" relative="1" as="geometry">
            <mxPoint x="360" y="360" as="sourcePoint" />
            <mxPoint x="410" y="310" as="targetPoint" />
          </mxGeometry>
        </mxCell>
        <mxCell id="54zL1PZyRiu6i7i1GvDw-9" value="INTERFAZ EXTERNA" style="rounded=1;whiteSpace=wrap;fillColor=#E1F5E0;strokeColor=#82b366;align=center;verticalAlign=middle;html=1;labelBorderColor=none;labelBackgroundColor=none;fontSize=10;" vertex="1" parent="1">
          <mxGeometry x="500" y="420" width="120" height="30" as="geometry" />
        </mxCell>
        <mxCell id="54zL1PZyRiu6i7i1GvDw-10" value="" style="endArrow=none;html=1;rounded=1;exitX=0;exitY=0.5;exitDx=0;exitDy=0;entryX=0.441;entryY=1.007;entryDx=0;entryDy=0;edgeStyle=orthogonalEdgeStyle;startArrow=classic;startFill=1;endFill=0;entryPerimeter=0;" edge="1" parent="1" source="54zL1PZyRiu6i7i1GvDw-9" target="54zL1PZyRiu6i7i1GvDw-4">
          <mxGeometry width="50" height="50" relative="1" as="geometry">
            <mxPoint x="490" y="355" as="sourcePoint" />
            <mxPoint x="520" y="420" as="targetPoint" />
          </mxGeometry>
        </mxCell>
        <mxCell id="54zL1PZyRiu6i7i1GvDw-11" value="CAPA DE INFRAESTRUCTURA" style="rounded=1;html=1;labelPosition=center;verticalLabelPosition=bottom;align=center;verticalAlign=top;fillColor=#fff2cc;strokeColor=#d6b656;horizontal=1;fontStyle=1;fontSize=10;" vertex="1" parent="1">
          <mxGeometry x="680" y="380" width="145" height="110" as="geometry" />
        </mxCell>
        <mxCell id="54zL1PZyRiu6i7i1GvDw-12" value="REPOSITORIO" style="rounded=1;whiteSpace=wrap;fillColor=#FFFCE0;strokeColor=#d6b656;align=center;verticalAlign=middle;html=1;labelBorderColor=none;labelBackgroundColor=none;fontSize=10;" vertex="1" parent="1">
          <mxGeometry x="700" y="400" width="105" height="30" as="geometry" />
        </mxCell>
        <mxCell id="54zL1PZyRiu6i7i1GvDw-14" value="..." style="rounded=1;whiteSpace=wrap;fillColor=#FFFCE0;strokeColor=#d6b656;align=center;verticalAlign=middle;html=1;labelBorderColor=none;labelBackgroundColor=none;fontSize=10;" vertex="1" parent="1">
          <mxGeometry x="700" y="440" width="105" height="30" as="geometry" />
        </mxCell>
        <mxCell id="54zL1PZyRiu6i7i1GvDw-15" value="..." style="rounded=1;whiteSpace=wrap;fillColor=#FEEDFF;strokeColor=#9673A6;align=center;verticalAlign=middle;html=1;labelBorderColor=none;labelBackgroundColor=none;fontSize=10;" vertex="1" parent="1">
          <mxGeometry x="130" y="302.5" width="105" height="30" as="geometry" />
        </mxCell>
        <mxCell id="54zL1PZyRiu6i7i1GvDw-17" value="" style="endArrow=classic;html=1;rounded=0;entryX=0;entryY=0.5;entryDx=0;entryDy=0;exitX=1;exitY=0.5;exitDx=0;exitDy=0;" edge="1" parent="1" source="54zL1PZyRiu6i7i1GvDw-1" target="54zL1PZyRiu6i7i1GvDw-5">
          <mxGeometry width="50" height="50" relative="1" as="geometry">
            <mxPoint x="255" y="310" as="sourcePoint" />
            <mxPoint x="305" y="260" as="targetPoint" />
          </mxGeometry>
        </mxCell>
        <mxCell id="54zL1PZyRiu6i7i1GvDw-18" value="" style="endArrow=classic;html=1;rounded=0;entryX=0;entryY=0.5;entryDx=0;entryDy=0;exitX=1;exitY=0.5;exitDx=0;exitDy=0;" edge="1" parent="1" source="54zL1PZyRiu6i7i1GvDw-9" target="54zL1PZyRiu6i7i1GvDw-11">
          <mxGeometry width="50" height="50" relative="1" as="geometry">
            <mxPoint x="640" y="434.65999999999997" as="sourcePoint" />
            <mxPoint x="705" y="434.65999999999997" as="targetPoint" />
          </mxGeometry>
        </mxCell>
      </root>
    </mxGraphModel>
  </diagram>
</mxfile>
